# xmcd CD database file
#
# Track frame offsets:
#	172
#	15907
#	32152
#	45428
#	59216
#	72927
#	85501
#	98359
#	112105
#	126522
#	140291
#	152966
#	167176
#	180041
#	192740
#	205281
#	218808
#	231191
#
# Disc length: 3271 seconds
#
# Revision: 1
# Processed by: cddbd v1.5.2PL0 Copyright (c) Steve Scherf et al.
# Submitted via: CDex 1.51
#
DISCID=f90cc512
DTITLE=Bumble Bee Slim - From Georgia To Chicago 1931-1937 Disc 1
DYEAR=1998
DGENRE=Blues
TTITLE0=No Woman No Nickel
TTITLE1=Chain Gang Bound
TTITLE2=Greasy Greens
TTITLE3=B and O Blues
TTITLE4=Dead And Gone Mother
TTITLE5=Policy Dream Blues
TTITLE6=If The Blues Was Whiskey
TTITLE7=I'm Needing Someone
TTITLE8=Smoky Mountain Blues
TTITLE9=Sail On Sail Blues
TTITLE10=Fattening Frog For Snakes
TTITLE11=My Old Pal Blues (Dedicated To Leroy Carr)
TTITLE12=Sloppy Drunk Blues 90196
TTITLE13=When Somebody Loses (Then Somebody Wins)
TTITLE14=This Old Life I'm Living
TTITLE15=Dumb Tricks Blues
TTITLE16=You Got To Live And Let Live
TTITLE17=I Done Caught My Death Of Cold
EXTD=YEAR: 1998
EXTT0=
EXTT1=
EXTT2=
EXTT3=
EXTT4=
EXTT5=
EXTT6=
EXTT7=
EXTT8=
EXTT9=
EXTT10=
EXTT11=
EXTT12=
EXTT13=
EXTT14=
EXTT15=
EXTT16=
EXTT17=
PLAYORDER=
